<svg width="95" height="107" viewBox="0 0 95 107" fill="none" xmlns="http://www.w3.org/2000/svg">
<path d="M56.2666 41.455C55.4759 41.9077 54.8313 42.2533 54.2059 42.6306C52.4793 43.6719 50.8534 43.6265 49.81 41.7898C48.8098 40.0292 49.6893 38.6875 51.2989 37.7556C53.2649 36.6172 55.2401 35.4946 57.2118 34.366C61.0899 32.1462 64.9344 29.8652 68.8562 27.7252C72.7273 25.6129 76.7058 25.6609 80.4485 27.9659C84.1349 30.2362 85.8809 33.6956 85.6559 38.0466C85.477 41.506 83.892 44.2982 81.1472 46.3302C79.5256 47.5307 77.6968 48.4652 75.9141 49.4329C74.3667 50.2728 72.9922 49.804 72.1107 48.3888C71.1859 46.904 71.6569 45.5294 73.0666 44.5894C74.3485 43.7346 75.7511 43.0624 77.0632 42.2497C79.9037 40.4904 80.7904 37.3934 79.2706 34.6839C77.801 32.064 74.5502 31.1081 71.6733 32.6875C66.5469 35.5021 61.501 38.4628 56.2666 41.455Z" fill="#38BDF8"/>
<path d="M62.1445 55.5975C61.3562 55.1406 60.7339 54.7565 60.0938 54.4046C58.3266 53.4334 57.5531 52.0059 58.6256 50.186C59.6537 48.4414 61.258 48.5305 62.8717 49.4553C64.8428 50.585 66.8048 51.7303 68.7703 52.8697C72.636 55.1108 76.5381 57.2922 80.3565 59.6109C84.1256 61.8996 86.0731 65.3613 85.9438 69.7478C85.8164 74.0682 83.6867 77.3066 79.7976 79.2876C76.7054 80.8628 73.4894 80.8894 70.3532 79.5337C68.5004 78.7327 66.7748 77.6198 65.0435 76.5632C63.5408 75.6461 63.2604 74.2241 64.0481 72.7549C64.8745 71.2133 66.3031 70.9329 67.8239 71.681C69.2068 72.3613 70.4916 73.2372 71.853 73.9646C74.8003 75.5393 77.9318 74.7569 79.5237 72.089C81.063 69.5092 80.2673 66.2223 77.4579 64.5262C72.4517 61.5039 67.3589 58.6243 62.1445 55.5975Z" fill="#41B388"/>
<path d="M41.6321 30.7808C41.6318 34.6892 41.6244 38.3534 41.634 42.0175C41.6392 44.0045 40.8813 45.3988 38.7085 45.4178C36.629 45.436 35.8576 44.017 35.8457 42.1988C35.8009 35.3593 35.6309 28.5122 35.8806 21.6815C36.1137 15.3069 41.302 10.6679 47.4574 10.8248C53.5401 10.9798 58.2471 15.9565 58.3516 22.3604C58.3755 23.8257 58.3557 25.2918 58.3442 26.7575C58.3311 28.4119 57.399 29.4048 55.8508 29.5665C54.1554 29.7436 52.9877 28.7721 52.7438 27.1182C52.52 25.6011 52.6256 24.0358 52.5844 22.4918C52.489 18.9145 50.3647 16.613 47.1407 16.593C43.9514 16.5731 41.6858 18.9724 41.6415 22.4769C41.6076 25.163 41.633 27.8499 41.6321 30.7808Z" fill="#9866DA"/>
<path d="M24.6742 47.4C28.0665 49.3545 31.2433 51.1929 34.4285 53.0167C36.1558 54.0057 36.9871 55.3578 35.9172 57.2447C34.8932 59.0506 33.2759 59.0076 31.6917 58.1088C25.7327 54.7278 19.7046 51.4511 13.9005 47.82C8.48389 44.4313 7.0515 37.6288 10.2654 32.3885C13.4413 27.2102 20.1145 25.6313 25.7252 28.743C27.009 29.4549 28.2717 30.2051 29.5381 30.9479C30.9676 31.7864 31.3633 33.0882 30.7296 34.5069C30.0356 36.0604 28.6086 36.5836 27.051 35.9674C25.6223 35.4022 24.3165 34.5283 22.9557 33.7919C19.8029 32.0857 16.7431 32.7705 15.1137 35.5462C13.5019 38.2921 14.4516 41.4493 17.4713 43.2399C19.7858 44.6123 22.1308 45.9337 24.6742 47.4Z" fill="#E46358"/>
<path d="M31.0769 69.6564C34.4696 67.7025 37.6537 65.8767 40.8293 64.0364C42.5514 63.0384 44.1406 62.9961 45.2435 64.864C46.299 66.6518 45.453 68.0278 43.8808 68.9472C37.9666 72.4057 32.1084 75.9761 26.0546 79.1757C20.405 82.1616 13.7843 79.9981 10.8427 74.6009C7.93598 69.2676 9.90211 62.712 15.4084 59.4198C16.6683 58.6665 17.9508 57.9505 19.2287 57.2277C20.6713 56.4117 21.9991 56.7207 22.9136 57.9776C23.915 59.354 23.6556 60.8487 22.342 61.8864C21.1371 62.8383 19.7256 63.5297 18.4061 64.3373C15.3487 66.2084 14.4132 69.1947 16.0078 71.9904C17.5852 74.7561 20.8006 75.5142 23.8646 73.8002C26.2131 72.4865 28.5325 71.121 31.0769 69.6564Z" fill="#F9B142"/>
<path d="M53.4573 76.1988C53.4576 72.2903 53.465 68.6262 53.4554 64.962C53.4502 62.9751 54.2081 61.5807 56.3809 61.5617C58.4604 61.5435 59.2318 62.9625 59.2437 64.7808C59.2885 71.6203 59.4584 78.4673 59.2087 85.298C58.9757 91.6727 53.7874 96.3116 47.632 96.1547C41.5493 95.9997 36.8422 91.0231 36.7378 84.6192C36.7139 83.1539 36.7337 81.6877 36.7452 80.2221C36.7583 78.5677 37.6904 77.5748 39.2386 77.4131C40.934 77.236 42.1016 78.2075 42.3456 79.8614C42.5694 81.3784 42.4638 82.9437 42.505 84.4877C42.6003 88.0651 44.7247 90.3665 47.9486 90.3866C51.138 90.4064 53.4036 88.0072 53.4479 84.5027C53.4818 81.8165 53.4563 79.1296 53.4573 76.1988Z" fill="#F1CC2E"/>
<ellipse cx="89.8584" cy="28.5821" rx="4.65206" ry="4.64155" fill="#38BDF8"/>
<ellipse cx="4.65206" cy="29.0707" rx="4.65206" ry="4.64155" fill="#E46358"/>
<ellipse cx="90.3479" cy="77.4406" rx="4.65206" ry="4.64155" fill="#41B388"/>
<ellipse cx="47.745" cy="102.359" rx="4.65206" ry="4.64155" fill="#F1CC2E"/>
<ellipse cx="4.65206" cy="77.9292" rx="4.65206" ry="4.64155" fill="#F9B142"/>
<ellipse cx="47.2551" cy="4.64155" rx="4.65206" ry="4.64155" fill="#9866DA"/>
</svg>
